<svg id="Layer_1" data-name="Layer 1" xmlns="http://www.w3.org/2000/svg" viewBox="0 0 1385.64 252.17"><defs><style>.cls-1{fill:#fee927;stroke:#231f20;}.cls-1,.cls-2{stroke-miterlimit:10;stroke-width:2px;}.cls-2{fill:#231f20;stroke:#fff;}</style></defs><title>hexagon horizontal rule</title><polygon class="cls-1" points="0 2.18 43.3 27.18 43.3 77.18 0 102.18 -43.3 77.18 -43.3 27.18 0 2.18"/><polygon class="cls-2" points="43.3 76.32 86.6 101.32 86.6 151.32 43.3 176.32 0 151.32 0 101.32 43.3 76.32"/><polygon class="cls-2" points="86.6 2.18 129.9 27.18 129.9 77.18 86.6 102.18 43.3 77.18 43.3 27.18 86.6 2.18"/><polygon class="cls-1" points="129.9 76.32 173.21 101.32 173.21 151.32 129.9 176.32 86.6 151.32 86.6 101.32 129.9 76.32"/><polygon class="cls-1" points="173.21 2.18 216.51 27.18 216.51 77.18 173.21 102.18 129.9 77.18 129.9 27.18 173.21 2.18"/><polygon class="cls-2" points="216.51 76.32 259.81 101.32 259.81 151.32 216.51 176.32 173.21 151.32 173.21 101.32 216.51 76.32"/><polygon class="cls-2" points="259.81 2.18 303.11 27.18 303.11 77.18 259.81 102.18 216.51 77.18 216.51 27.18 259.81 2.18"/><polygon class="cls-1" points="303.11 76.32 346.41 101.32 346.41 151.32 303.11 176.32 259.81 151.32 259.81 101.32 303.11 76.32"/><polygon class="cls-1" points="346.41 2.18 389.71 27.18 389.71 77.18 346.41 102.18 303.11 77.18 303.11 27.18 346.41 2.18"/><polygon class="cls-2" points="433.01 2.18 476.31 27.18 476.31 77.18 433.01 102.18 389.71 77.18 389.71 27.18 433.01 2.18"/><polygon class="cls-2" points="389.71 76.32 433.01 101.32 433.01 151.32 389.71 176.32 346.41 151.32 346.41 101.32 389.71 76.32"/><polygon class="cls-1" points="476.31 76.32 519.62 101.32 519.62 151.32 476.31 176.32 433.01 151.32 433.01 101.32 476.31 76.32"/><polygon class="cls-1" points="519.62 2.18 562.92 27.18 562.92 77.18 519.62 102.18 476.31 77.18 476.31 27.18 519.62 2.18"/><polygon class="cls-2" points="562.92 76.32 606.22 101.32 606.22 151.32 562.92 176.32 519.62 151.32 519.62 101.32 562.92 76.32"/><polygon class="cls-2" points="606.22 2.18 649.52 27.18 649.52 77.18 606.22 102.18 562.92 77.18 562.92 27.18 606.22 2.18"/><polygon class="cls-1" points="649.52 76.32 692.82 101.32 692.82 151.32 649.52 176.32 606.22 151.32 606.22 101.32 649.52 76.32"/><polygon class="cls-1" points="692.82 2.18 736.12 27.18 736.12 77.18 692.82 102.18 649.52 77.18 649.52 27.18 692.82 2.18"/><polygon class="cls-2" points="736.12 76.32 779.42 101.32 779.42 151.32 736.12 176.32 692.82 151.32 692.82 101.32 736.12 76.32"/><polygon class="cls-2" points="779.42 2.18 822.72 27.18 822.72 77.18 779.42 102.18 736.12 77.18 736.12 27.18 779.42 2.18"/><polygon class="cls-1" points="822.72 76.32 866.02 101.32 866.02 151.32 822.72 176.32 779.42 151.32 779.42 101.32 822.72 76.32"/><polygon class="cls-1" points="866.02 2.18 909.33 27.18 909.33 77.18 866.02 102.18 822.72 77.18 822.72 27.18 866.02 2.18"/><polygon class="cls-2" points="909.33 76.32 952.63 101.32 952.63 151.32 909.33 176.32 866.02 151.32 866.02 101.32 909.33 76.32"/><polygon class="cls-2" points="952.63 2.18 995.93 27.18 995.93 77.18 952.63 102.18 909.33 77.18 909.33 27.18 952.63 2.18"/><polygon class="cls-1" points="995.93 76.32 1039.23 101.32 1039.23 151.32 995.93 176.32 952.63 151.32 952.63 101.32 995.93 76.32"/><polygon class="cls-1" points="1039.23 2.18 1082.53 27.18 1082.53 77.18 1039.23 102.18 995.93 77.18 995.93 27.18 1039.23 2.18"/><polygon class="cls-2" points="1082.53 76.32 1125.83 101.32 1125.83 151.32 1082.53 176.32 1039.23 151.32 1039.23 101.32 1082.53 76.32"/><polygon class="cls-2" points="1125.83 2.18 1169.13 27.18 1169.13 77.18 1125.83 102.18 1082.53 77.18 1082.53 27.18 1125.83 2.18"/><polygon class="cls-1" points="1169.13 76.32 1212.44 101.32 1212.44 151.32 1169.13 176.32 1125.83 151.32 1125.83 101.32 1169.13 76.32"/><polygon class="cls-1" points="1212.44 2.18 1255.74 27.18 1255.74 77.18 1212.44 102.18 1169.13 77.18 1169.13 27.18 1212.44 2.18"/><polygon class="cls-2" points="1255.74 76.32 1299.04 101.32 1299.04 151.32 1255.74 176.32 1212.44 151.32 1212.44 101.32 1255.74 76.32"/><polygon class="cls-2" points="1299.04 2.18 1342.34 27.18 1342.34 77.18 1299.04 102.18 1255.74 77.18 1255.74 27.18 1299.04 2.18"/><polygon class="cls-1" points="1342.34 76.32 1385.64 101.32 1385.64 151.32 1342.34 176.32 1299.04 151.32 1299.04 101.32 1342.34 76.32"/><polygon class="cls-1" points="1385.64 2.18 1428.94 27.18 1428.94 77.18 1385.64 102.18 1342.34 77.18 1342.34 27.18 1385.64 2.18"/><polygon class="cls-2" points="1428.94 76.32 1472.24 101.32 1472.24 151.32 1428.94 176.32 1385.64 151.32 1385.64 101.32 1428.94 76.32"/><polygon class="cls-2" points="0 150.18 43.3 175.18 43.3 225.18 0 250.18 -43.3 225.18 -43.3 175.18 0 150.18"/><polygon class="cls-1" points="86.6 150.18 129.9 175.18 129.9 225.18 86.6 250.18 43.3 225.18 43.3 175.18 86.6 150.18"/><polygon class="cls-2" points="173.21 150.18 216.51 175.18 216.51 225.18 173.21 250.18 129.9 225.18 129.9 175.18 173.21 150.18"/><polygon class="cls-1" points="259.81 150.18 303.11 175.18 303.11 225.18 259.81 250.18 216.51 225.18 216.51 175.18 259.81 150.18"/><polygon class="cls-1" points="433.01 150.18 476.31 175.18 476.31 225.18 433.01 250.18 389.71 225.18 389.71 175.18 433.01 150.18"/><polygon class="cls-2" points="346.41 150.18 389.71 175.18 389.71 225.18 346.41 250.18 303.11 225.18 303.11 175.18 346.41 150.18"/><polygon class="cls-2" points="519.62 150.18 562.92 175.18 562.92 225.18 519.62 250.18 476.31 225.18 476.31 175.18 519.62 150.18"/><polygon class="cls-1" points="606.22 150.18 649.52 175.18 649.52 225.18 606.22 250.18 562.92 225.18 562.92 175.18 606.22 150.18"/><polygon class="cls-2" points="692.82 150.18 736.12 175.18 736.12 225.18 692.82 250.18 649.52 225.18 649.52 175.18 692.82 150.18"/><polygon class="cls-1" points="779.42 150.18 822.72 175.18 822.72 225.18 779.42 250.18 736.12 225.18 736.12 175.18 779.42 150.18"/><polygon class="cls-2" points="866.02 150.18 909.33 175.18 909.33 225.18 866.02 250.18 822.72 225.18 822.72 175.18 866.02 150.18"/><polygon class="cls-1" points="952.63 150.18 995.93 175.18 995.93 225.18 952.63 250.18 909.33 225.18 909.33 175.18 952.63 150.18"/><polygon class="cls-2" points="1039.23 150.18 1082.53 175.18 1082.53 225.18 1039.23 250.18 995.93 225.18 995.93 175.18 1039.23 150.18"/><polygon class="cls-1" points="1125.83 150.18 1169.13 175.18 1169.13 225.18 1125.83 250.18 1082.53 225.18 1082.53 175.18 1125.83 150.18"/><polygon class="cls-2" points="1212.44 150.18 1255.74 175.18 1255.74 225.18 1212.44 250.18 1169.13 225.18 1169.13 175.18 1212.44 150.18"/><polygon class="cls-1" points="1299.04 150.18 1342.34 175.18 1342.34 225.18 1299.04 250.18 1255.74 225.18 1255.74 175.18 1299.04 150.18"/><polygon class="cls-2" points="1385.64 150.18 1428.94 175.18 1428.94 225.18 1385.64 250.18 1342.34 225.18 1342.34 175.18 1385.64 150.18"/></svg>