<svg id="Layer_1" data-name="Layer 1" xmlns="http://www.w3.org/2000/svg" viewBox="0 0 785.79 253.36"><defs><style>.cls-1,.cls-2{fill:#231f20;}.cls-2{stroke:#fff;stroke-miterlimit:10;stroke-width:2px;}</style></defs><title>Site Footer</title><rect class="cls-1" width="786.75" height="253.36"/><polygon class="cls-2" points="88.02 74.14 131.32 99.14 131.32 149.14 88.02 174.14 44.72 149.14 44.72 99.14 88.02 74.14"/><polygon class="cls-2" points="1.42 74.14 44.72 99.14 44.72 149.14 1.42 174.14 -41.88 149.14 -41.88 99.14 1.42 74.14"/><polygon class="cls-2" points="44.72 0 88.02 25 88.02 75 44.72 100 1.42 75 1.42 25 44.72 0"/><polygon class="cls-2" points="44.72 148 88.02 173 88.02 223 44.72 248 1.42 223 1.42 173 44.72 148"/><polygon class="cls-2" points="131.32 148 174.63 173 174.63 223 131.32 248 88.02 223 88.02 173 131.32 148"/><polygon class="cls-2" points="699.19 74.14 655.89 99.14 655.89 149.14 699.19 174.14 742.49 149.14 742.49 99.14 699.19 74.14"/><polygon class="cls-2" points="785.79 74.14 742.49 99.14 742.49 149.14 785.79 174.14 829.1 149.14 829.1 99.14 785.79 74.14"/><polygon class="cls-2" points="742.49 0 699.19 25 699.19 75 742.49 100 785.79 75 785.79 25 742.49 0"/><polygon class="cls-2" points="742.49 148 699.19 173 699.19 223 742.49 248 785.79 223 785.79 173 742.49 148"/><polygon class="cls-2" points="655.89 148 612.59 173 612.59 223 655.89 248 699.19 223 699.19 173 655.89 148"/></svg>